<svg xmlns="http://www.w3.org/2000/svg" width="96" height="96" viewBox="0 0 96 96"><defs><linearGradient id="m" x1="0" y1="0" x2="1" y2="1"><stop stop-color="#F0CF93"/><stop offset=".35" stop-color="#D4A45F"/><stop offset=".7" stop-color="#8A5E31"/><stop offset="1" stop-color="#4B3828"/></linearGradient></defs><g fill="none" stroke="url(#m)" stroke-linecap="round" stroke-linejoin="round"><path stroke-width="3" d="M84 12H42c-16 0-30 14-30 30v42"/><path stroke-width="1.5" opacity=".8" d="M74 20H45c-12 0-23 11-23 23v31"/><path stroke-width="2" d="M14 46c15-3 25-13 29-29M18 58c20-5 35-20 40-40"/><path stroke-width="1.4" opacity=".75" d="M32 24c7 0 13 5 13 12 0 6-5 11-11 11-5 0-9-4-9-9 0-4 3-7 7-7"/><circle cx="18" cy="18" r="4" fill="#D4A45F" stroke="none"/><circle cx="18" cy="18" r="1.5" fill="#21170F" stroke="none"/></g></svg>